<?xml version="1.0" encoding="UTF-8"?>
<svg id="Layer_2" data-name="Layer 2" xmlns="http://www.w3.org/2000/svg" viewBox="0 0 367.48 150.37">
  <defs>
    <style>
      .cls-1 {
        fill: #a7ff5a;
      }
    </style>
  </defs>
  <g id="Layer_1-2" data-name="Layer 1">
    <path class="cls-1" d="M105.21,4.74c8.53,6.87,13.03,16.79,17.17,26.68,4.94.08,9.65-.16,14.55-.81,1.39-.17,2.77-.35,4.16-.52.72-.09,1.44-.18,2.18-.28,23.79-3.01,47.65-5.23,71.63-5.76.68-.02,1.35-.04,2.05-.05,13-.32,25.94.72,38.89,1.69q.32-.83.64-1.67.43-1.09.86-2.21c.28-.72.56-1.44.84-2.18,3.31-7.55,9.64-13.02,17.1-16.3,12.44-4.44,26.52-4.08,38.69,1.07,2.64,1.43,5,3.06,7.37,4.91q.74.54,1.49,1.09c10.42,8.12,13.24,18.36,14.88,30.84q.82.25,1.66.51,20.95,6.51,27,11.77c2.32,4.63.49,10.41-.88,15.1-1.16,3.2-2.5,6.25-5.67,7.83-5.46.68-8.08-1.15-12.23-4.3-1.1-.81-2.2-1.62-3.3-2.42-.48-.36-.96-.72-1.45-1.09-2.68-1.73-5.53-3.09-8.41-4.47,0,1,.02,2,.03,3.03.07,12.54-.23,25.06-.63,37.6-.09,2.87-.17,5.73-.25,8.6-.08,2.76-.17,5.52-.26,8.29-.03,1.03-.05,2.06-.08,3.11-.03.94-.07,1.88-.1,2.85-.03.83-.05,1.66-.08,2.51q-.26,1.97-1.9,3.61c-5.48.73-9.81-1.36-14.79-3.48q-1.19-.49-2.4-.98-10.59-4.42-12.29-7.82c-.02-1.61.01-3.21.07-4.82q.05-1.51.11-3.06.03-.81.06-1.64c.07-1.71.13-3.41.19-5.12.11-2.99.21-5.98.32-8.96.57-15.34,1.02-30.64.88-45.99-.83-.37-1.65-.74-2.51-1.13q-.7-.31-1.41-.63c-2.47-.95-5-1.63-7.55-2.33.02.65.04,1.3.06,1.96.2,6.22.39,12.45.58,18.67.1,3.2.2,6.39.3,9.59.5,15.86.83,31.69.7,47.56-7.47.19-14.74-.07-22.17-.83-.79-.08-1.57-.16-2.38-.24-1.91-.19-3.83-.38-5.74-.58.22-5.15.43-10.31.65-15.46.07-1.75.15-3.5.22-5.25.4-9.48.81-18.96,1.58-28.42q-9.14-.52-17.19,3.28-1.97,1.95-3.28,4.09c-.34.49-.68.98-1.02,1.48-1.2,3.5-1.26,6.65.04,10.08,2.6,4.73,6.07,6.61,10.8,8.91,1.37.81,2.74,1.62,4.09,2.46-.36,6.14-.77,12.08-2.46,18.01-4.46,2.23-10.05.59-14.53-.87q-.85-.27-1.71-.55c-8.6-2.92-16.34-7.2-21.42-14.95-1.37-2.94-2.41-5.89-3.28-9.01-.14-.51-.29-1.02-.43-1.55-2.35-10.47-.4-21.09,5.09-30.13,5.53-7.72,13.03-12.96,22.36-14.99,8.04-.41,15.32-.49,22.93,2.46v-10.64c-1.1-.05-2.2-.1-3.33-.15-1.5-.07-3-.14-4.5-.21-.79-.04-1.59-.07-2.4-.11-4.24-.2-8.46-.46-12.69-.81-10.06-.72-20.21-.42-30.3-.36-1.13,2.26-.95,4.11-.97,6.65-.01,1.06-.03,2.11-.04,3.2q0,.85-.02,1.72c-.02,1.8-.04,3.6-.06,5.41-.04,3.21-.08,6.42-.11,9.63q-.33,30.37-.81,44.79c-.03.97-.06,1.95-.09,2.95-.03.88-.06,1.76-.1,2.66-.03.77-.05,1.54-.08,2.33q-.16,1.73-.98,2.55c-2.12.2-4.22.35-6.35.46-.62.03-1.25.07-1.89.11-5.45.28-10.88.34-16.33.25-1.31-2.62-.72-5.4-.54-8.26q.06-1,.11-2.02c.12-2.14.25-4.27.38-6.41q.77-12.94.87-25.89c-.56.57-1.13,1.14-1.7,1.73-.74.75-1.48,1.49-2.24,2.26-.73.74-1.46,1.48-2.22,2.25-2.51,2.41-3.73,3.55-7.25,3.74-3.41-1.12-3.67-1.64-5.32-4.66-.59-1.23-1.17-2.45-1.74-3.68q-.8-.99-2.33-.9l-5.04.08c-.56,1.08-1.1,2.18-1.64,3.28l-.92,1.84c-1.4,4.4-1.22,7.59.51,11.77,2.7,4.11,6.21,7.04,11,8.32,1.59.28,3.19.53,4.79.73q1.82.27,2.64,1.08c.68,5.98-.61,10.79-3.63,15.92-2.67,2.67-6.4,2.26-9.98,2.3-8.53-.09-14.34-1.96-20.78-7.57-.71-.57-1.42-1.15-2.15-1.74-7.96-9.63-9.51-21.35-8.49-33.47,1.77-8.65,5.36-16.5,11.46-22.93h1.64v-1.64c7.83-6.51,15.45-8.21,25.43-7.55,6.37.71,10.82,3.43,15.5,7.55h3.28c.27-5.67.54-11.35.82-17.19-7.03.73-14.05,1.47-21.08,2.2-3.26.34-6.53.68-9.79,1.02-3.15.33-6.31.66-9.46.99-1.2.13-2.4.25-3.59.38-6.1.64-12.21,1.28-18.31,1.97-.07,11.32,0,22.62.23,33.94.04,1.89.07,3.77.11,5.66.02,1.27.05,2.54.07,3.81.01.63.02,1.26.04,1.91.06,3.26.13,6.52.21,9.77.07,3.22.14,6.43.19,9.65.02,1.21.05,2.42.08,3.63.04,1.67.07,3.35.1,5.02.02.95.04,1.9.06,2.87q-.26,2.33-1.31,3.82c-2.43,1.67-5.27,2.13-8.11,2.75q-.9.22-1.81.44c-4.06.93-7.79,1.4-11.95,1.04-2.18-3.26-1.85-6.09-1.82-9.88,0-.76,0-1.52,0-2.3,0-2.51.01-5.02.03-7.54,0-1.74,0-3.48,0-5.22,0-4.58.02-9.17.04-13.75.02-4.68.02-9.35.03-14.03.02-9.18.05-18.35.08-27.53q-2.84.41-5.73.82c0,.98.01,1.95.02,2.96.07,9.2.12,18.41.15,27.61.02,4.73.04,9.46.08,14.2.04,4.57.06,9.13.06,13.7,0,1.74.02,3.49.04,5.23.02,2.44.03,4.88.03,7.32.01.72.02,1.45.04,2.19q-.03,4.88-1.89,7.44c-2.46,1.69-5.02,2.39-7.88,3.07-.54.14-1.07.28-1.63.43-2.93.74-5.64,1.25-8.66,1-1.3-1.3-1.1-2.77-1.28-4.55-.07-.68-.14-1.35-.21-2.05-.05-.52-.1-1.04-.15-1.58-.56.59-1.11,1.19-1.68,1.8-8.79,9.21-19.85,16.66-32.98,17.23-10.29.23-16.79-.56-24.53-7.79-6.66-6.67-9.54-14.43-9.85-23.77.26-11.13,4.62-20.98,12.22-29.06,13.25-12.18,29.62-16.94,47.02-19.49.83-.13,1.66-.25,2.51-.38.75-.11,1.5-.22,2.28-.33.57-.14,1.14-.29,1.73-.43.98-1.97.9-3.23.87-5.42-.02-1.19-.03-2.39-.05-3.58-6.77,1.02-13.12,2.77-19.6,4.96-.96.32-1.92.65-2.92.98-10.43,3.58-20.51,7.82-30.09,13.3-3.64,2.04-6.24,2.94-10.44,2.87-3.38-1.04-4.66-2.14-6.86-4.91-1.98-3.92-1.95-8-1.33-12.28,2.26-4.98,6.82-8.57,11.84-10.67,2.3-.74,4.6-1.37,6.94-1.97q1.32-.35,2.66-.71c24.41-6.37,49.21-10.82,74.36-12.85q-2.01-3.04-5.13-4.64c-4.91.08-7.79,1.16-11.95,3.71-2.85,1.5-5.2,1.68-8.31.93-1.87-.86-3.6-1.86-5.37-2.93-5.04-2.94-10.47-4.9-16.07-6.49-.74-.21-1.49-.42-2.25-.64-1.49-.42-2.99-.82-4.49-1.21-.69-.19-1.37-.38-2.08-.58-.62-.16-1.24-.33-1.88-.49q-1.44-.76-2.16-2.35-.1-1.69,1.58-3.74C53.29,7.52,86.7-7.98,105.21,4.74ZM288.59,24.05c-1.35,1.58-2.26,3.08-3.28,4.91q.55,1.65,1.64,3.28,1.71.76,3.75,1.07c.75.14,1.5.28,2.27.43.78.13,1.57.26,2.38.4q1.16.22,2.34.45c4.02.72,7.35,1.16,11.38.11.41-4.34-.52-6.47-3.28-9.83-5.1-4.22-11.68-4.17-17.19-.82ZM67.06,87.3q-.96.28-1.95.58c-2.06,1.05-2.51,2.01-3.32,4.13,3.51,3.17,7.14,4.75,11.46,6.55v-12.28c-2.37,0-3.95.33-6.19,1.02ZM49.5,97.74c-2.87,2.87-5.73,6.47-5.73,10.64.38,3.78,1.22,6.05,3.68,9.01,2.85,2.05,5.56,2.17,8.99,1.98,5.5-.92,9.48-4.07,13.53-7.71q-.06-1.6-.82-3.28-2.02-1.07-4.5-1.84c-4.66-1.77-7.69-4-11.18-7.51q-1.49-1.56-3.96-1.29Z"/>
  </g>
</svg>