<svg width="606" height="155" viewBox="0 0 606 155" fill="none" xmlns="http://www.w3.org/2000/svg">
<path d="M-3.01445e-08 2.05083H33.2524L77.7842 110.744H79.542L124.074 2.05083H157.326V152.053H131.252V48.9997H129.86L88.4044 151.613H68.9218L27.4662 48.7799H26.0746V152.053H-3.01445e-08V2.05083ZM312.701 77.0518C312.701 93.2141 309.674 107.057 303.619 118.581C297.613 130.055 289.41 138.845 279.009 144.948C268.658 151.052 256.914 154.104 243.779 154.104C230.645 154.104 218.877 151.052 208.476 144.948C198.125 138.796 189.921 129.982 183.867 118.507C177.861 106.984 174.858 93.1653 174.858 77.0518C174.858 60.8895 177.861 47.0709 183.867 35.5962C189.921 24.0726 198.125 15.259 208.476 9.15541C218.877 3.05182 230.645 2.39542e-05 243.779 2.39542e-05C256.914 2.39542e-05 268.658 3.05182 279.009 9.15541C289.41 15.259 297.613 24.0726 303.619 35.5962C309.674 47.0709 312.701 60.8895 312.701 77.0518ZM285.382 77.0518C285.382 65.6747 283.599 56.0798 280.035 48.2672C276.519 40.4058 271.636 34.4731 265.386 30.4692C259.136 26.4164 251.934 24.39 243.779 24.39C235.625 24.39 228.423 26.4164 222.173 30.4692C215.923 34.4731 211.015 40.4058 207.451 48.2672C203.935 56.0798 202.177 65.6747 202.177 77.0518C202.177 88.4289 203.935 98.0481 207.451 105.91C211.015 113.722 215.923 119.655 222.173 123.708C228.423 127.712 235.625 129.714 243.779 129.714C251.934 129.714 259.136 127.712 265.386 123.708C271.636 119.655 276.519 113.722 280.035 105.91C283.599 98.0481 285.382 88.4289 285.382 77.0518ZM380.972 152.053H330.141V2.05083H381.997C396.89 2.05083 409.683 5.0538 420.377 11.0597C431.119 17.0168 439.371 25.5863 445.133 36.7681C450.895 47.9499 453.776 61.3289 453.776 76.9053C453.776 92.5305 450.87 105.958 445.06 117.189C439.298 128.42 430.973 137.038 420.084 143.044C409.244 149.05 396.206 152.053 380.972 152.053ZM357.314 128.542H379.653C390.103 128.542 398.819 126.637 405.801 122.829C412.784 118.971 418.033 113.234 421.549 105.617C425.064 97.9505 426.822 88.3801 426.822 76.9053C426.822 65.4305 425.064 55.9089 421.549 48.3405C418.033 40.7232 412.833 35.0347 405.948 31.2748C399.112 27.4662 390.616 25.5619 380.459 25.5619H357.314V128.542ZM605.379 77.0518C605.379 93.2141 602.351 107.057 596.296 118.581C590.29 130.055 582.087 138.845 571.687 144.948C561.335 151.052 549.592 154.104 536.457 154.104C523.322 154.104 511.554 151.052 501.154 144.948C490.802 138.796 482.599 129.982 476.544 118.507C470.538 106.984 467.535 93.1653 467.535 77.0518C467.535 60.8895 470.538 47.0709 476.544 35.5962C482.599 24.0726 490.802 15.259 501.154 9.15541C511.554 3.05182 523.322 2.39542e-05 536.457 2.39542e-05C549.592 2.39542e-05 561.335 3.05182 571.687 9.15541C582.087 15.259 590.29 24.0726 596.296 35.5962C602.351 47.0709 605.379 60.8895 605.379 77.0518ZM578.059 77.0518C578.059 65.6747 576.277 56.0798 572.712 48.2672C569.196 40.4058 564.314 34.4731 558.063 30.4692C551.813 26.4164 544.611 24.39 536.457 24.39C528.302 24.39 521.1 26.4164 514.85 30.4692C508.6 34.4731 503.693 40.4058 500.128 48.2672C496.612 56.0798 494.855 65.6747 494.855 77.0518C494.855 88.4289 496.612 98.0481 500.128 105.91C503.693 113.722 508.6 119.655 514.85 123.708C521.1 127.712 528.302 129.714 536.457 129.714C544.611 129.714 551.813 127.712 558.063 123.708C564.314 119.655 569.196 113.722 572.712 105.91C576.277 98.0481 578.059 88.4289 578.059 77.0518Z" fill="white"/>
</svg>
