<svg width="865" height="155" viewBox="0 0 865 155" fill="none" xmlns="http://www.w3.org/2000/svg">
<path d="M3.43021e-05 2.05083H33.2524L77.7842 110.744H79.5421L124.074 2.05083H157.326V152.053H131.252V48.9997H129.86L88.4045 151.613H68.9218L27.4662 48.7799H26.0746V152.053H3.43021e-05V2.05083ZM273.223 2.05083H300.396V100.05C300.396 110.792 297.857 120.241 292.779 128.395C287.75 136.55 280.67 142.922 271.539 147.512C262.408 152.053 251.739 154.323 239.531 154.323C227.275 154.323 216.582 152.053 207.451 147.512C198.32 142.922 191.24 136.55 186.21 128.395C181.181 120.241 178.666 110.792 178.666 100.05V2.05083H205.84V97.7796C205.84 104.03 207.207 109.596 209.941 114.479C212.724 119.362 216.631 123.195 221.66 125.978C226.689 128.713 232.647 130.08 239.531 130.08C246.416 130.08 252.373 128.713 257.403 125.978C262.481 123.195 266.387 119.362 269.122 114.479C271.856 109.596 273.223 104.03 273.223 97.7796V2.05083ZM403.201 43.2867C402.518 36.8901 399.637 31.9096 394.558 28.3451C389.529 24.7806 382.986 22.9984 374.929 22.9984C369.265 22.9984 364.407 23.8529 360.354 25.5619C356.301 27.2709 353.201 29.5902 351.052 32.52C348.904 35.4497 347.805 38.7945 347.756 42.5543C347.756 45.6793 348.464 48.3893 349.88 50.6843C351.345 52.9792 353.323 54.9324 355.813 56.5437C358.303 58.1062 361.062 59.4246 364.089 60.4988C367.117 61.5731 370.169 62.4764 373.245 63.2088L387.307 66.7245C392.972 68.0429 398.416 69.8251 403.641 72.0713C408.914 74.3174 413.626 77.1494 417.777 80.5675C421.976 83.9855 425.296 88.1115 427.738 92.9455C430.179 97.7796 431.4 103.444 431.4 109.938C431.4 118.727 429.154 126.466 424.661 133.156C420.169 139.797 413.675 144.997 405.179 148.757C396.731 152.468 386.502 154.323 374.49 154.323C362.82 154.323 352.688 152.517 344.094 148.903C335.549 145.29 328.859 140.016 324.025 133.083C319.24 126.149 316.652 117.702 316.262 107.741H342.995C343.386 112.965 344.997 117.311 347.829 120.778C350.661 124.245 354.348 126.833 358.889 128.542C363.479 130.251 368.606 131.105 374.27 131.105C380.178 131.105 385.354 130.226 389.798 128.468C394.29 126.662 397.806 124.172 400.345 120.998C402.884 117.775 404.178 114.015 404.227 109.718C404.178 105.812 403.03 102.589 400.784 100.05C398.538 97.4622 395.389 95.3137 391.336 93.6047C387.332 91.8469 382.644 90.2844 377.273 88.9172L360.207 84.5226C347.854 81.3487 338.088 76.5391 330.91 70.0937C323.781 63.5995 320.217 54.9812 320.217 44.2389C320.217 35.4009 322.609 27.6615 327.395 21.0208C332.229 14.3801 338.796 9.22866 347.097 5.5665C355.398 1.85552 364.797 2.39542e-05 375.296 2.39542e-05C385.94 2.39542e-05 395.267 1.85552 403.274 5.5665C411.331 9.22866 417.654 14.3313 422.244 20.8743C426.834 27.3685 429.202 34.8393 429.349 43.2867H403.201ZM447.375 152.053V2.05083H544.935V24.8294H474.548V65.5526H539.881V88.3312H474.548V129.274H545.521V152.053H447.375ZM658.964 2.05083H686.137V100.05C686.137 110.792 683.598 120.241 678.52 128.395C673.49 136.55 666.41 142.922 657.279 147.512C648.148 152.053 637.479 154.323 625.272 154.323C613.016 154.323 602.323 152.053 593.192 147.512C584.061 142.922 576.98 136.55 571.951 128.395C566.922 120.241 564.407 110.792 564.407 100.05V2.05083H591.58V97.7796C591.58 104.03 592.947 109.596 595.682 114.479C598.465 119.362 602.371 123.195 607.401 125.978C612.43 128.713 618.387 130.08 625.272 130.08C632.157 130.08 638.114 128.713 643.143 125.978C648.222 123.195 652.128 119.362 654.862 114.479C657.597 109.596 658.964 104.03 658.964 97.7796V2.05083ZM707.422 2.05083H740.675L785.206 110.744H786.964L831.496 2.05083H864.749V152.053H838.674V48.9997H837.282L795.827 151.613H776.344L734.888 48.7799H733.497V152.053H707.422V2.05083Z" fill="white"/>
</svg>
