<?xml version="1.0" encoding="UTF-8"?>
<svg id="Layer_2" data-name="Layer 2" xmlns="http://www.w3.org/2000/svg" viewBox="0 0 382.56 115.88">
  <defs>
    <style>
      .cls-1 {
        fill: #a7ff5a;
      }
    </style>
  </defs>
  <g id="Layer_1-2" data-name="Layer 1">
    <g>
      <path class="cls-1" d="M67.88,32.72c2.6,2.74,2.38,4.57,2.31,8.29,0,1.11,0,2.22,0,3.37-.57,3.94-1.95,6.9-4.79,9.74-2.24.25-4.48.43-6.73.58-1.36.09-2.72.19-4.13.29-1.45.1-2.9.19-4.35.29-1.45.1-2.91.2-4.36.3-3.57.24-7.14.48-10.71.72v4.32c.65.14,1.31.28,1.98.43,2.99.65,5.98,1.33,8.97,2,1.03.22,2.06.44,3.12.67,8.78,2.01,14.55,5.05,20.53,12.03,3.36,6.89,3.02,14.99,1.15,22.3-2.39,6.13-6.35,10.05-11.96,13.38-14.98,5.57-29.97,6.33-44.84-.07-5.58-2.83-10.48-6.23-13.54-11.82-1.16-4.63-.34-8,1.89-12.23q3.99-4.77,6.76-6.15c5.35,0,8.87,2.33,13.16,5.24,4.49,2.83,8.97,2.46,14.08,2.4.81,0,1.62,0,2.46-.01,2-.01,3.99-.03,5.99-.05q-.65-2.7-2.16-5.41-2.63-1.25-5.82-1.76c-1.17-.25-2.35-.5-3.56-.76q-1.85-.36-3.73-.73c-9.96-1.98-18.27-3.8-25.2-11.62-2.79-5.8-3.63-11.38-1.82-17.64,3.91-8.84,12.59-13.73,21.15-17.27,12.88-4.83,31.42-7.52,44.17-.82Z"/>
      <path class="cls-1" d="M310.42,32.98c3.66,2.4,6.17,4.82,7.49,9.05.53,2.68.66,5.22.73,7.96.03,1.09.07,2.17.1,3.29.03,1.15.07,2.29.1,3.47q.63,18.09,6.01,35.2.68,2.77,0,5.41c-4.26,4.67-8.03,7.36-14.46,7.84-4.94-.34-7.5-1.53-10.86-5.17-1.33-1.58-2.61-3.2-3.87-4.83q-4.27,1.37-8.43,3.03c-7.07,3.08-14.1,3.78-21.54,1.47-7.34-3.27-12.14-7.8-15.24-15.24-2.21-5.99-2.92-11.4-2.84-17.77,0-.9.02-1.79.02-2.72.35-13.08,5.33-22.75,14.71-31.74,14.95-12.03,32.76-7.97,48.06.76ZM276.96,55.87c-3.37,4.75-3.63,8.73-2.91,14.46q1.54,2.98,4.32,4.32c4.42.19,6.05-.69,9.32-3.65,4.63-6.2,7.73-14.54,6.89-22.3-8.07-.56-12.11.89-17.64,7.16Z"/>
      <path class="cls-1" d="M131.51,33c8.05,6.34,11.96,14.83,13.59,24.83,1.57,14.31-1.08,27.6-9.43,39.52-6.86,8.1-15.1,12.01-25.59,13.34-9.02.35-17.06-2.31-24.14-7.94-9.59-9.59-11.18-21.81-11.23-34.76.21-12.53,4.41-23.36,13.39-32.27,12.95-10.66,29.43-12.3,43.41-2.73ZM105.87,54.05c-4.81,6.05-6.72,12.89-5.88,20.61.7,3.14,1.55,5.9,3.24,8.65q3.26,2.22,6.49,3.24c5.57-3.76,7.67-7.84,9.2-14.16,1.07-6.45.11-12.35-2.71-18.27-4.2-2.8-6.24-3.17-10.34-.07Z"/>
      <path class="cls-1" d="M197.28,25.64c4.64,3.1,7.98,6.97,9.74,12.26.63,6.58-.61,9.88-4.32,15.14-2.78,2.23-3.99,2.18-7.57,1.96q-3.24-.88-5.47-2.57-2.04-1.74-4.8-2.09-2.95.33-5.14,3.04c-3.36,5.15-3.57,9.89-2.97,15.88,1.76,3.93,2.88,5.16,6.49,7.57,6.85,1.14,10.85-1.54,16.6-5.17,3.36-1.54,4.83-1.48,8.27-.23,2.4,4.81,1.8,11.41.42,16.5-2.97,6.67-8.16,11.63-14.62,14.97-8.66,3.32-18.17,3.25-26.82-.07-8.18-4.1-13.32-11.09-16.41-19.56-3.38-12.59-2.91-30.62,3.37-42.1,9.54-14.88,26.07-24.14,43.23-15.51Z"/>
      <path class="cls-1" d="M331.05,11.67q16.72.08,23.54,4c3.85,4.01,2.86,9.56,2.82,14.75-.24,8.8-.89,17.58-1.52,26.36-.18,2.5-.34,5.01-.5,7.52-.06.76-.12,1.52-.18,2.31-.25,4.02-.19,6.82,2.08,10.22,5.75-.49,10.73-1.37,16.22-3.24q2.91-.41,5.41,0c2.4,1.9,3.11,3.47,3.59,6.47.38,7.42-1.65,12.76-6.5,18.34-6.27,6.05-13.35,8.68-22.02,9.11-6.95-.66-13.79-2.35-19.09-7.2-6.77-9.04-6.91-21.32-7.37-32.12-.05-1.03-.09-2.06-.14-3.12-.1-2.18-.19-4.35-.29-6.53-.14-3.28-.29-6.56-.44-9.84-.42-9.29-.81-18.58-.91-27.88-.02-1.26-.03-2.51-.05-3.81.35-4.06,1.32-4.94,5.35-5.33Z"/>
      <path class="cls-1" d="M241.23,35.95c1.99,2.64,1.88,4.34,1.89,7.63.01,1.16.02,2.32.03,3.51,0,1.25-.01,2.5-.02,3.79,0,1.28,0,2.57,0,3.89,0,2.72,0,5.43-.02,8.15-.02,4.16,0,8.33.02,12.49,0,2.64,0,5.27-.01,7.91q0,1.88.02,3.79c-.01,1.16-.02,2.32-.03,3.51,0,1.02,0,2.04,0,3.09-.48,3.04-1.24,3.98-3.66,5.83-3.98,1.56-8.28,1.3-12.5,1.35-.73.02-1.45.04-2.2.07q-5.25.04-7.67-1.52c-2.13-3.12-1.75-5.71-1.69-9.45,0-.73.01-1.46.02-2.21.03-2.34.07-4.68.12-7.02.05-3.05.09-6.1.13-9.15,0-.75.02-1.49.03-2.26.04-5.89-.3-11.71-.84-17.57q-.8-9.34-.26-13.85c4.38-4.38,21.46-5.72,26.64-1.95Z"/>
      <path class="cls-1" d="M239.45,3.3c3.86,3.56,5.12,6.79,5.51,11.91-.24,4.94-2.54,7.88-6.05,11.14-5.25,3.54-10.61,3.6-16.76,2.91-4.21-2.14-7.51-4.44-9.73-8.65-1.11-4.9-1.51-7.42.14-12.16,2.57-3.76,5.18-6.4,9.46-8.11,6.7-.79,11.44-.3,17.43,2.97Z"/>
    </g>
  </g>
</svg>